<svg width="24" height="23" viewBox="0 0 24 23" fill="none" xmlns="http://www.w3.org/2000/svg">
<path d="M6.39052 7.74418V6.65037C6.41538 6.17805 6.78826 5.80516 7.23573 5.80516L16.906 5.7803C17.3783 5.80516 17.7512 6.17805 17.7512 6.62551V16.3206C17.7512 16.7681 17.3783 17.141 16.906 17.1658H15.8122C15.3398 17.141 14.967 16.7681 14.9421 16.2958L15.0912 10.429L7.95665 17.5636C7.60862 17.9116 7.11143 17.9116 6.7634 17.5636L5.96791 16.7681C5.64474 16.4449 5.61988 15.9229 5.96791 15.5748L13.1025 8.44024L7.26059 8.61425C6.78826 8.58939 6.39052 8.24136 6.39052 7.74418Z" fill="#090B0E"/>
</svg>
