<svg width="16" height="17" viewBox="0 0 16 17" fill="none" xmlns="http://www.w3.org/2000/svg">
<path d="M10.9438 5.55005H5.4125C5.88125 2.7688 6.94375 0.800049 8.19375 0.800049C9.4125 0.800049 10.5063 2.7688 10.9438 5.55005ZM5.19375 8.55005C5.19375 7.86255 5.225 7.2063 5.2875 6.55005H11.0688C11.1313 7.2063 11.1625 7.86255 11.1625 8.55005C11.1625 9.2688 11.1313 9.92505 11.0688 10.55H5.2875C5.225 9.92505 5.19375 9.2688 5.19375 8.55005ZM15.3188 5.55005H11.9438C11.6625 3.80005 11.1625 2.2063 10.3813 1.1438C12.6313 1.80005 14.4438 3.4563 15.3188 5.55005ZM5.975 1.1438C5.19375 2.2063 4.69375 3.80005 4.4125 5.55005H1.0375C1.9125 3.4563 3.725 1.80005 5.975 1.1438ZM15.6625 6.55005C15.8188 7.2063 15.9125 7.86255 15.9125 8.55005C15.9125 9.2688 15.8188 9.92505 15.6625 10.55H12.0688C12.1313 9.8938 12.1938 9.23755 12.1938 8.55005C12.1938 7.8938 12.1313 7.2063 12.0688 6.55005H15.6625ZM4.19375 8.55005C4.19375 9.23755 4.225 9.8938 4.2875 10.55H0.69375C0.5375 9.92505 0.44375 9.2688 0.44375 8.55005C0.44375 7.86255 0.5375 7.2063 0.69375 6.55005H4.2875C4.225 7.2063 4.19375 7.8938 4.19375 8.55005ZM5.4125 11.55H10.9438C10.5063 14.3625 9.4125 16.3 8.19375 16.3C6.94375 16.3 5.88125 14.3625 5.4125 11.55ZM10.3813 15.9875C11.1625 14.925 11.6938 13.3313 11.9438 11.55H15.3188C14.4438 13.675 12.6313 15.3313 10.3813 15.9875ZM1.0375 11.55H4.4125C4.69375 13.3313 5.19375 14.925 5.975 15.9875C3.725 15.3313 1.9125 13.675 1.0375 11.55Z" fill="#212529"/>
</svg>
